<svg xmlns="http://www.w3.org/2000/svg" xmlns:xlink="http://www.w3.org/1999/xlink" width="200" zoomAndPan="magnify" viewBox="0 0 150 74.999997" height="100" preserveAspectRatio="xMidYMid meet" version="1.0"><defs><g/></defs><g fill="#ffffff" fill-opacity="1"><g transform="translate(5.312665, 34.400764)"><g><path d="M 10.09375 0.0859375 L 14.238281 0.0273438 L 14.847656 -0.230469 L 15.167969 -0.839844 L 15.167969 -3.769531 L 14.847656 -4.351562 L 14.238281 -4.613281 L 13.574219 -4.554688 L 13.023438 -4.640625 L 11.542969 -4.667969 L 10.585938 -4.554688 L 10.007812 -4.613281 L 9.367188 -4.582031 L 8.816406 -4.667969 L 8.179688 -4.613281 L 7.570312 -4.902344 L 7.335938 -5.421875 L 7.335938 -7.25 L 7.597656 -7.859375 L 8.121094 -8.179688 L 8.992188 -8.207031 L 9.917969 -8.121094 L 11.019531 -8.179688 L 12.210938 -8.148438 L 12.789062 -8.207031 L 13.457031 -8.179688 L 14.039062 -8.410156 L 14.238281 -8.992188 L 14.328125 -11.601562 L 14.039062 -12.414062 L 13.371094 -12.789062 L 11.660156 -12.789062 L 11.050781 -12.730469 L 9.832031 -12.820312 L 8.148438 -12.761719 L 7.539062 -13.023438 L 7.308594 -13.921875 L 7.308594 -14.820312 L 7.570312 -15.371094 L 8.207031 -15.601562 L 8.757812 -15.574219 L 9.308594 -15.691406 L 13.457031 -15.632812 L 14.007812 -15.660156 L 14.617188 -16.007812 L 14.90625 -16.53125 L 14.878906 -17.113281 L 14.90625 -17.691406 L 14.847656 -19.433594 L 14.589844 -19.984375 L 14.007812 -20.214844 L 13.398438 -20.214844 L 12.878906 -20.332031 L 10.527344 -20.300781 L 9.890625 -20.242188 L 9.308594 -20.300781 L 8.816406 -20.273438 L 8.238281 -20.332031 L 5.859375 -20.273438 L 5.277344 -20.359375 L 4.726562 -20.242188 L 4.207031 -20.300781 L 3.625 -20.242188 L 3.046875 -20.273438 L 2.4375 -20.039062 L 2.117188 -19.433594 L 2.175781 -18.328125 L 2.089844 -17.140625 L 2.175781 -16.503906 L 2.117188 -13.660156 L 2.203125 -13.050781 L 2.144531 -12.5 L 2.117188 -10.121094 L 2.203125 -9.601562 L 2.175781 -4.902344 L 2.117188 -4.351562 L 2.203125 -3.769531 L 2.117188 -1.769531 L 2.175781 -1.132812 L 2.40625 -0.347656 L 3.277344 0.0273438 L 5.367188 0.0585938 L 6.003906 0 L 6.527344 0.0273438 L 7.714844 -0.0585938 L 8.265625 0.0585938 L 8.933594 0.0859375 L 9.511719 0.0273438 Z M 10.09375 0.0859375 "/></g></g></g><g fill="#ffffff" fill-opacity="1"><g transform="translate(21.925182, 34.400764)"><g><path d="M 2.175781 -1.1875 L 2.464844 -0.289062 L 3.304688 0.0859375 L 3.886719 0 L 4.8125 0.0859375 L 5.277344 0.0273438 L 6.148438 0.0273438 L 7.078125 -0.261719 L 7.335938 -1.101562 L 7.335938 -2.089844 L 7.394531 -2.609375 L 7.308594 -3.21875 L 7.367188 -5.074219 L 7.628906 -5.65625 L 8.179688 -5.972656 L 9.859375 -5.742188 L 10.441406 -5.25 L 10.789062 -4.667969 L 11.019531 -4.148438 L 11.628906 -3.277344 L 12.179688 -2.234375 L 12.5 -1.796875 L 12.730469 -1.21875 L 13.050781 -0.726562 L 13.6875 -0.203125 L 14.675781 0.0585938 L 16.964844 0.0273438 L 17.515625 0.0859375 L 18.472656 0.0585938 L 19.027344 -0.203125 L 19.199219 -0.839844 L 18.878906 -1.480469 L 18.53125 -1.886719 L 18.300781 -2.4375 L 17.316406 -3.914062 L 17.054688 -4.4375 L 16.125 -5.945312 L 15.777344 -6.378906 L 15.75 -7.078125 L 16.007812 -7.714844 L 16.414062 -8.148438 L 16.820312 -8.496094 L 17.953125 -10.527344 L 18.328125 -12.210938 L 18.273438 -14.039062 L 18.183594 -14.617188 L 17.664062 -16.269531 L 17.429688 -16.761719 L 17.113281 -17.226562 L 15.457031 -18.96875 L 14.441406 -19.519531 L 13.339844 -19.894531 L 11.6875 -20.273438 L 10.761719 -20.300781 L 9.917969 -20.242188 L 8.179688 -20.242188 L 7.597656 -20.359375 L 7.019531 -20.359375 L 6.496094 -20.214844 L 5.917969 -20.214844 L 5.335938 -20.332031 L 4.699219 -20.359375 L 2.988281 -20.214844 L 2.464844 -19.925781 L 2.117188 -19.113281 L 2.144531 -12.472656 L 2.203125 -11.890625 L 2.117188 -10.730469 L 2.144531 -10.09375 L 2.144531 -9.511719 L 2.203125 -8.960938 L 2.144531 -8.410156 L 2.117188 -6.0625 L 2.175781 -5.480469 Z M 8.179688 -10.613281 L 7.597656 -10.933594 L 7.367188 -11.398438 L 7.367188 -13.136719 L 7.308594 -13.632812 L 7.367188 -14.847656 L 7.628906 -15.398438 L 8.238281 -15.632812 L 8.816406 -15.601562 L 9.976562 -15.71875 L 10.789062 -15.546875 L 11.542969 -15.488281 L 12.09375 -15.34375 L 12.820312 -14.441406 L 12.992188 -13.980469 L 13.109375 -13.226562 L 13.023438 -12.355469 L 12.761719 -11.773438 L 12.441406 -11.339844 L 12.121094 -11.078125 L 11.601562 -10.847656 L 10.761719 -10.644531 L 10.207031 -10.613281 L 8.816406 -10.671875 Z M 8.179688 -10.613281 "/></g></g></g><g fill="#ffffff" fill-opacity="1"><g transform="translate(42.045748, 34.400764)"><g><path d="M 9.714844 0.117188 L 10.875 0.0585938 L 11.398438 -0.230469 L 11.6875 -0.78125 L 11.6875 -3.65625 L 11.339844 -4.207031 L 10.703125 -4.523438 L 10.09375 -4.523438 L 9.398438 -4.757812 L 9.046875 -5.421875 L 9.136719 -5.972656 L 9.105469 -9.164062 L 9.164062 -9.804688 L 9.046875 -11.890625 L 9.164062 -14.820312 L 9.367188 -15.488281 L 10.007812 -15.75 L 10.585938 -15.835938 L 11.195312 -16.066406 L 11.484375 -16.53125 L 11.515625 -19.402344 L 11.164062 -19.953125 L 10.644531 -20.273438 L 7.132812 -20.273438 L 6.613281 -20.332031 L 6.03125 -20.214844 L 3.65625 -20.214844 L 3.101562 -20.300781 L 2.4375 -20.300781 L 1.855469 -20.011719 L 1.566406 -19.316406 L 1.652344 -17.167969 L 1.59375 -16.617188 L 1.914062 -16.039062 L 2.550781 -15.71875 L 3.132812 -15.71875 L 3.683594 -15.371094 L 3.945312 -14.589844 L 4.03125 -5.683594 L 3.710938 -4.8125 L 1.796875 -4.234375 L 1.480469 -3.710938 L 1.390625 -1.042969 L 1.683594 -0.261719 L 2.261719 0 L 2.8125 0 L 3.363281 -0.0585938 L 4.207031 0.0585938 L 5.105469 0.0273438 L 5.683594 -0.0273438 L 6.84375 0.0859375 L 7.714844 -0.0273438 L 9.136719 -0.0273438 Z M 9.714844 0.117188 "/></g></g></g><g fill="#ffffff" fill-opacity="1"><g transform="translate(55.208192, 34.400764)"><g><path d="M 3.015625 0.0859375 L 4.8125 0 L 5.625 0.0585938 L 6.554688 -0.0273438 L 7.132812 -0.261719 L 7.453125 -0.898438 L 7.394531 -3.21875 L 7.484375 -3.828125 L 7.394531 -6.875 L 7.714844 -7.367188 L 8.441406 -7.6875 L 9.222656 -7.628906 L 9.890625 -7.132812 L 10.179688 -6.671875 L 10.382812 -6.0625 L 11.570312 -4.117188 L 11.773438 -3.625 L 12.035156 -3.21875 L 12.585938 -2.144531 L 12.933594 -1.710938 L 13.226562 -1.160156 L 13.515625 -0.78125 L 14.066406 -0.230469 L 14.734375 0.0585938 L 17.664062 0.0273438 L 18.183594 -0.0273438 L 18.765625 0 L 19.375 -0.144531 L 19.519531 -0.78125 L 17.71875 -4.058594 L 17.34375 -4.523438 L 16.445312 -6.003906 L 16.125 -6.410156 L 15.804688 -6.960938 L 15.574219 -7.453125 L 14.617188 -8.992188 L 14.5 -9.65625 L 14.878906 -10.265625 L 15.777344 -11.019531 L 16.707031 -12.210938 L 17.140625 -12.964844 L 17.34375 -13.484375 L 17.835938 -15.167969 L 18.039062 -17.023438 L 17.980469 -17.605469 L 18.070312 -19.402344 L 17.808594 -19.984375 L 17.167969 -20.242188 L 16.300781 -20.332031 L 15.34375 -20.214844 L 14.472656 -20.332031 L 13.601562 -20.300781 L 12.992188 -19.953125 L 12.761719 -19.402344 L 12.761719 -18.765625 L 12.675781 -18.214844 L 12.703125 -17.632812 L 12.472656 -15.75 L 12.296875 -15.3125 L 12.121094 -14.703125 L 11.457031 -13.777344 L 10.441406 -13.050781 L 9.917969 -12.820312 L 9.28125 -12.730469 L 8.699219 -12.558594 L 8.0625 -12.558594 L 7.570312 -12.90625 L 7.425781 -13.515625 L 7.453125 -14.066406 L 7.425781 -16.15625 L 7.367188 -16.675781 L 7.425781 -17.371094 L 7.394531 -18.273438 L 7.453125 -19.460938 L 7.078125 -19.925781 L 6.234375 -20.1875 L 4.785156 -20.332031 L 4.234375 -20.300781 L 3.65625 -20.359375 L 3.015625 -20.332031 L 2.4375 -19.953125 L 2.175781 -19.402344 L 2.117188 -18.910156 L 2.175781 -15.371094 L 2.089844 -14.792969 L 2.175781 -14.210938 L 2.117188 -10.644531 L 2.203125 -10.152344 L 2.089844 -8.960938 L 2.175781 -8.324219 L 2.144531 -7.191406 L 2.203125 -6.671875 L 2.117188 -5.480469 L 2.175781 -4.292969 L 2.144531 -3.828125 L 2.203125 -3.21875 L 2.144531 -2.640625 L 2.203125 -1.160156 L 2.496094 -0.261719 Z M 3.015625 0.0859375 "/></g></g></g><g fill="#ffffff" fill-opacity="1"><g transform="translate(75.29977, 34.400764)"><g><path d="M 10.09375 0.230469 L 11.542969 0.347656 L 13.574219 0.203125 L 15.285156 -0.144531 L 15.804688 -0.433594 L 16.414062 -0.636719 L 16.910156 -0.871094 L 18.328125 -1.886719 L 19.140625 -2.695312 L 19.808594 -3.566406 L 20.417969 -4.613281 L 21.171875 -6.816406 L 20.996094 -7.335938 L 20.417969 -7.714844 L 18.792969 -7.597656 L 18.214844 -7.6875 L 17.632812 -7.65625 L 17.054688 -7.6875 L 16.386719 -7.335938 L 15.921875 -6.875 L 15.632812 -6.324219 L 14.964844 -5.570312 L 14.5 -5.164062 L 14.066406 -4.988281 L 13.050781 -4.4375 L 11.515625 -4.351562 L 10.671875 -4.4375 L 9.628906 -4.8125 L 8.613281 -5.335938 L 7.773438 -6.089844 L 7.132812 -7.105469 L 6.929688 -7.6875 L 6.730469 -8.089844 L 6.582031 -8.613281 L 6.496094 -9.25 L 6.496094 -11.019531 L 6.699219 -12.179688 L 7.132812 -13.226562 L 7.425781 -13.777344 L 8.121094 -14.589844 L 8.816406 -15.140625 L 9.601562 -15.574219 L 11.542969 -15.835938 L 12.789062 -15.777344 L 13.6875 -15.515625 L 14.210938 -15.3125 L 14.617188 -14.996094 L 15.457031 -14.152344 L 15.777344 -13.71875 L 16.328125 -13.167969 L 16.996094 -12.847656 L 17.515625 -12.90625 L 18.125 -12.878906 L 18.707031 -12.90625 L 19.519531 -12.820312 L 20.390625 -12.90625 L 20.882812 -13.136719 L 21.085938 -13.71875 L 20.910156 -14.355469 L 20.707031 -14.878906 L 20.535156 -15.488281 L 20.214844 -15.953125 L 19.953125 -16.414062 L 19.546875 -16.910156 L 19.230469 -17.460938 L 18.417969 -18.300781 L 16.445312 -19.546875 L 13.660156 -20.476562 L 13.109375 -20.503906 L 12.527344 -20.589844 L 10.730469 -20.621094 L 7.917969 -20.070312 L 5.773438 -19.054688 L 4.929688 -18.417969 L 3.683594 -17.285156 L 2.898438 -16.300781 L 2.347656 -15.457031 L 1.625 -13.835938 L 1.335938 -12.644531 L 1.042969 -10.152344 L 1.21875 -8.035156 L 1.625 -6.378906 L 2.871094 -3.855469 L 4.058594 -2.582031 L 5.367188 -1.449219 L 6.613281 -0.78125 L 7.917969 -0.230469 L 8.441406 -0.117188 L 9.019531 0.0859375 L 9.542969 0.203125 Z M 10.09375 0.230469 "/></g></g></g><g fill="#ffffff" fill-opacity="1"><g transform="translate(97.420797, 34.400764)"><g><path d="M 2.203125 -1.042969 L 2.40625 -0.289062 L 2.957031 0 L 3.539062 0.0585938 L 4.757812 -0.0273438 L 5.886719 0.0273438 L 6.988281 -0.0273438 L 7.539062 0.0585938 L 8.179688 0 L 13.921875 0.0273438 L 14.472656 -0.261719 L 14.792969 -1.160156 L 14.761719 -3.507812 L 14.5 -4.378906 L 13.980469 -4.726562 L 13.371094 -4.667969 L 12.820312 -4.554688 L 12.210938 -4.640625 L 11.019531 -4.613281 L 10.441406 -4.726562 L 9.917969 -4.640625 L 8.789062 -4.699219 L 8.179688 -4.640625 L 7.597656 -4.871094 L 7.367188 -5.453125 L 7.394531 -15.285156 L 7.335938 -15.980469 L 7.394531 -17.140625 L 7.308594 -18.792969 L 7.335938 -19.34375 L 7.046875 -19.984375 L 6.46875 -20.332031 L 5.335938 -20.332031 L 4.757812 -20.214844 L 3.597656 -20.332031 L 3.046875 -20.242188 L 2.4375 -20.011719 L 2.175781 -19.375 L 2.175781 -15.3125 L 2.117188 -14.761719 L 2.175781 -14.183594 L 2.089844 -13.109375 L 2.117188 -12.472656 L 2.175781 -11.921875 Z M 2.203125 -1.042969 "/></g></g></g><g fill="#ffffff" fill-opacity="1"><g transform="translate(113.018589, 34.400764)"><g><path d="M 9.714844 0.117188 L 10.875 0.0585938 L 11.398438 -0.230469 L 11.6875 -0.78125 L 11.6875 -3.65625 L 11.339844 -4.207031 L 10.703125 -4.523438 L 10.09375 -4.523438 L 9.398438 -4.757812 L 9.046875 -5.421875 L 9.136719 -5.972656 L 9.105469 -9.164062 L 9.164062 -9.804688 L 9.046875 -11.890625 L 9.164062 -14.820312 L 9.367188 -15.488281 L 10.007812 -15.75 L 10.585938 -15.835938 L 11.195312 -16.066406 L 11.484375 -16.53125 L 11.515625 -19.402344 L 11.164062 -19.953125 L 10.644531 -20.273438 L 7.132812 -20.273438 L 6.613281 -20.332031 L 6.03125 -20.214844 L 3.65625 -20.214844 L 3.101562 -20.300781 L 2.4375 -20.300781 L 1.855469 -20.011719 L 1.566406 -19.316406 L 1.652344 -17.167969 L 1.59375 -16.617188 L 1.914062 -16.039062 L 2.550781 -15.71875 L 3.132812 -15.71875 L 3.683594 -15.371094 L 3.945312 -14.589844 L 4.03125 -5.683594 L 3.710938 -4.8125 L 1.796875 -4.234375 L 1.480469 -3.710938 L 1.390625 -1.042969 L 1.683594 -0.261719 L 2.261719 0 L 2.8125 0 L 3.363281 -0.0585938 L 4.207031 0.0585938 L 5.105469 0.0273438 L 5.683594 -0.0273438 L 6.84375 0.0859375 L 7.714844 -0.0273438 L 9.136719 -0.0273438 Z M 9.714844 0.117188 "/></g></g></g><g fill="#ffffff" fill-opacity="1"><g transform="translate(126.181033, 34.400764)"><g><path d="M 7.800781 0.261719 L 10.09375 0.320312 L 10.671875 0.261719 L 11.253906 0.117188 L 11.832031 0.0273438 L 12.414062 -0.203125 L 12.933594 -0.261719 L 13.484375 -0.523438 L 15.457031 -1.710938 L 16.300781 -2.582031 L 16.589844 -2.988281 L 16.910156 -3.625 L 17.082031 -4.148438 L 17.257812 -4.640625 L 17.429688 -6.089844 L 17.371094 -7.019531 L 16.9375 -8.699219 L 16.617188 -9.164062 L 15.863281 -10.035156 L 15.34375 -10.5 L 14.878906 -10.730469 L 14.355469 -11.050781 L 12.09375 -11.746094 L 11.515625 -11.832031 L 10.933594 -11.863281 L 10.324219 -11.976562 L 9.484375 -11.976562 L 7.945312 -12.296875 L 6.875 -12.820312 L 6.4375 -13.226562 L 6.324219 -14.09375 L 6.46875 -14.878906 L 6.816406 -15.253906 L 7.25 -15.574219 L 7.714844 -15.835938 L 8.238281 -15.953125 L 9.164062 -15.980469 L 10.09375 -15.863281 L 10.613281 -15.71875 L 11.136719 -15.371094 L 11.628906 -14.964844 L 12.066406 -14.386719 L 12.703125 -14.007812 L 14.066406 -14.125 L 14.847656 -14.066406 L 15.429688 -14.066406 L 15.953125 -14.007812 L 16.503906 -14.414062 L 16.734375 -14.90625 L 16.617188 -15.457031 L 16.558594 -16.007812 L 15.75 -17.515625 L 15.109375 -18.386719 L 13.195312 -19.722656 L 11.570312 -20.273438 L 10.441406 -20.503906 L 8.207031 -20.5625 L 7.570312 -20.390625 L 6.988281 -20.359375 L 6.46875 -20.273438 L 5.367188 -19.925781 L 4.378906 -19.34375 L 2.988281 -18.386719 L 1.972656 -17.023438 L 1.449219 -15.429688 L 1.363281 -14.007812 L 1.390625 -13.109375 L 1.59375 -11.949219 L 2.058594 -10.933594 L 3.132812 -9.601562 L 5.105469 -8.527344 L 6.148438 -8.179688 L 10.703125 -7.65625 L 11.746094 -7.164062 L 12.121094 -6.816406 L 12.296875 -6.089844 L 12.066406 -5.367188 L 11.6875 -4.929688 L 10.703125 -4.496094 L 9.804688 -4.4375 L 9.28125 -4.351562 L 7.800781 -4.496094 L 7.308594 -4.757812 L 6.816406 -5.074219 L 5.859375 -6.121094 L 5.277344 -6.351562 L 4.757812 -6.292969 L 4.207031 -6.378906 L 1.972656 -6.265625 L 1.449219 -6.03125 L 1.21875 -5.421875 L 1.304688 -4.84375 L 1.421875 -4.261719 L 1.59375 -3.742188 L 2.144531 -2.667969 L 2.550781 -2.292969 L 2.929688 -1.855469 L 3.945312 -1.21875 L 4.351562 -0.78125 L 4.902344 -0.523438 L 5.480469 -0.347656 L 6.613281 0.0585938 Z M 7.800781 0.261719 "/></g></g></g><path stroke-linecap="butt" transform="matrix(0.75, 0, 0, 0.75, 7.500002, 39.933207)" fill="none" stroke-linejoin="miter" d="M 9.885414 24.995309 L 10.177081 25.641142 L 10.796873 26.031767 L 11.864581 25.938017 L 12.83854 26.031767 L 17.541665 25.969267 L 18.192707 26.063017 L 21.536457 25.906767 L 22.114582 25.802601 L 23.93229 25.286976 L 24.510415 24.995309 L 25.812499 23.95885 L 26.692707 22.750517 L 27.015624 22.104684 L 27.203124 21.495309 L 27.468749 20.875517 L 27.531249 18.245308 L 27.171874 17.08385 L 26.593749 15.750516 L 26.166666 15.260933 L 25.651041 14.807808 L 25.328124 14.063016 L 25.557291 13.448433 L 26.166666 12.177599 L 26.562499 11.016141 L 26.593749 9.906766 L 26.526041 8.901558 L 26.270832 7.734891 L 26.041666 7.057807 L 24.973957 5.568224 L 24.479165 5.104682 L 23.999999 4.781765 L 23.546874 4.427599 L 22.989582 4.099474 L 22.374999 3.807807 L 21.828124 3.620307 L 20.562498 3.323432 L 17.218748 3.229682 L 16.630207 3.354682 L 15.364581 3.198432 L 14.786456 3.323432 L 10.859373 3.260932 L 10.145831 3.589057 L 9.822914 4.26614 L 9.822914 4.979682 L 9.885414 5.568224 L 9.854164 6.245307 L 9.885414 6.823432 L 9.822914 8.740099 L 9.916664 10.104683 L 9.791664 16.297391 L 9.885414 17.27135 L 9.822914 24.375517 Z M 16.536457 12.146349 L 15.854165 11.760933 L 15.499998 10.849474 L 15.468748 9.750516 L 15.854165 8.807807 L 16.473956 8.417182 L 19.817707 8.646349 L 20.333332 8.901558 L 20.593748 9.422391 L 20.687499 10.396349 L 20.458332 11.339058 L 19.973957 11.729683 L 19.031248 12.052599 Z M 16.442706 20.813017 L 15.854165 20.58385 L 15.437498 19.932808 L 15.531248 17.984892 L 15.822915 17.438017 L 16.36979 17.010933 L 16.989582 17.1151 L 17.671873 17.0526 L 20.718749 17.33385 L 21.270832 17.563017 L 21.598957 18.151558 L 21.786457 18.95885 L 21.630207 19.901558 L 21.270832 20.354683 L 20.718749 20.70885 L 18.937498 20.875517 Z M 48.005209 26.063017 L 49.234376 25.969267 L 49.848959 26.031767 L 50.854168 26.000517 L 51.765626 25.839059 L 51.859376 25.057809 L 51.630209 24.313017 L 51.151043 23.109892 L 50.270834 21.422392 L 49.817709 20.224475 L 49.166667 19.0526 L 47.932292 16.109891 L 47.609376 15.6151 L 47.291667 15.000516 L 47.093751 14.286975 L 46.802084 13.8026 L 46.609376 13.281766 L 45.921876 12.083849 L 45.697917 11.401558 L 43.552084 6.891141 L 43.364584 6.245307 L 43.005209 5.661974 L 42.807292 5.073432 L 42.192709 3.943224 L 41.645834 3.354682 L 40.572917 3.031765 L 39.536458 3.39114 L 38.953125 3.943224 L 38.661458 4.490099 L 38.427083 5.141141 L 38.135417 5.599474 L 36.84375 8.578641 L 36.489583 9.068224 L 36.322916 9.714058 L 35.963541 10.333849 L 35.765625 10.911974 L 32.463541 17.859892 L 32.265624 18.573433 L 31.942708 19.0526 L 31.713541 19.703642 L 31.135416 20.7401 L 30.645833 22.042184 L 30.286458 22.500517 L 30.130208 23.078642 L 29.479166 24.375517 L 29.281249 25.026559 L 29.447916 25.839059 L 30.098958 26.031767 L 31.354166 25.969267 L 32.005208 26.031767 L 33.828125 25.969267 L 34.572916 25.740101 L 35.1875 25.161975 L 35.765625 24.08385 L 36.385416 23.474475 L 37.067708 23.109892 L 37.682292 23.214059 L 39.046875 23.078642 L 39.635417 23.182809 L 42.807292 23.14635 L 43.395834 23.214059 L 44.109375 23.109892 L 44.822917 23.474475 L 45.437501 23.9901 L 45.729167 24.604684 L 45.921876 25.193225 L 46.572917 25.677601 L 47.322917 26.000517 Z M 40.640625 17.984892 L 39.989583 17.859892 L 39.244792 17.922392 L 38.723958 17.693225 L 38.692708 17.08385 L 40.21875 13.573433 L 40.572917 13.281766 L 41.026042 13.542183 L 42.557292 17.1151 L 42.421875 17.693225 L 41.9375 17.953642 Z M 54.843751 24.667184 L 55.166668 25.677601 L 56.109376 26.094267 L 56.760418 26.000517 L 57.796877 26.094267 L 58.312502 26.031767 L 59.28646 26.031767 L 60.322918 25.708851 L 60.614585 24.766142 L 60.614585 23.661975 L 60.682293 23.078642 L 60.583335 22.39635 L 60.645835 20.323433 L 60.94271 19.672392 L 61.557294 19.313017 L 63.44271 19.578642 L 64.093752 20.130725 L 64.479169 20.781767 L 64.734377 21.359892 L 65.416669 22.33385 L 66.036461 23.505725 L 66.390627 23.9901 L 66.651044 24.635934 L 67.010419 25.193225 L 67.718752 25.771351 L 68.828127 26.063017 L 71.385419 26.031767 L 72.005211 26.094267 L 73.072919 26.063017 L 73.692711 25.771351 L 73.890628 25.057809 L 73.526044 24.344267 L 73.135419 23.891142 L 72.885419 23.276559 L 71.776044 21.620309 L 71.484378 21.031767 L 70.442711 19.349475 L 70.057294 18.8651 L 70.026044 18.089058 L 70.317711 17.3651 L 70.770836 16.885933 L 71.229169 16.495308 L 72.489586 14.224475 L 72.916669 12.344266 L 72.843753 10.302599 L 72.750003 9.651558 L 72.161461 7.802599 L 71.911461 7.255724 L 71.552086 6.729682 L 69.703128 4.781765 L 68.567711 4.167182 L 67.333336 3.745307 L 65.489585 3.323432 L 64.447919 3.292182 L 63.50521 3.354682 L 61.557294 3.354682 L 60.91146 3.229682 L 60.260418 3.229682 L 59.682293 3.39114 L 59.031252 3.39114 L 58.385418 3.260932 L 57.671877 3.229682 L 55.75521 3.39114 L 55.166668 3.714057 L 54.781251 4.625515 L 54.812501 12.052599 L 54.875001 12.703641 L 54.781251 13.995308 L 54.812501 14.714058 L 54.812501 15.3651 L 54.875001 15.974475 L 54.812501 16.589058 L 54.781251 19.219267 L 54.843751 19.870308 Z M 61.557294 14.125516 L 60.91146 13.77135 L 60.645835 13.250516 L 60.645835 11.307808 L 60.583335 10.755724 L 60.645835 9.391141 L 60.94271 8.776557 L 61.625002 8.510932 L 62.270835 8.542182 L 63.572919 8.417182 L 64.479169 8.615099 L 65.322919 8.677599 L 65.937502 8.839057 L 66.744794 9.844266 L 66.942711 10.365099 L 67.072919 11.203641 L 66.973961 12.177599 L 66.682294 12.828641 L 66.328127 13.313016 L 65.968752 13.604683 L 65.385419 13.8651 L 64.447919 14.094266 L 63.833335 14.125516 L 62.270835 14.063016 Z M 77.35417 24.995309 L 77.645836 25.641142 L 78.265628 26.031767 L 79.333337 25.938017 L 80.307295 26.031767 L 85.015629 25.969267 L 85.661462 26.063017 L 89.005212 25.906767 L 89.583337 25.802601 L 91.406254 25.286976 L 91.984379 24.995309 L 93.281254 23.95885 L 94.161463 22.750517 L 94.48438 22.104684 L 94.677088 21.495309 L 94.937505 20.875517 L 95.000005 18.245308 L 94.645838 17.08385 L 94.067713 15.750516 L 93.640629 15.260933 L 93.125004 14.807808 L 92.796879 14.063016 L 93.026046 13.448433 L 93.640629 12.177599 L 94.036463 11.016141 L 94.067713 9.906766 L 93.994796 8.901558 L 93.739588 7.734891 L 93.510421 7.057807 L 92.442713 5.568224 L 91.953129 5.104682 L 91.468754 4.781765 L 91.015629 4.427599 L 90.463546 4.099474 L 89.843754 3.807807 L 89.296879 3.620307 L 88.031254 3.323432 L 84.687504 3.229682 L 84.10417 3.354682 L 82.833337 3.198432 L 82.255212 3.323432 L 78.328128 3.260932 L 77.614586 3.589057 L 77.29167 4.26614 L 77.29167 4.979682 L 77.35417 5.568224 L 77.32292 6.245307 L 77.35417 6.823432 L 77.29167 8.740099 L 77.38542 10.104683 L 77.26042 16.297391 L 77.35417 17.27135 L 77.29167 24.375517 Z M 84.005212 12.146349 L 83.328129 11.760933 L 82.968754 10.849474 L 82.937504 9.750516 L 83.328129 8.807807 L 83.942712 8.417182 L 87.286462 8.646349 L 87.802087 8.901558 L 88.062504 9.422391 L 88.156254 10.396349 L 87.927087 11.339058 L 87.442712 11.729683 L 86.500004 12.052599 Z M 83.911462 20.813017 L 83.328129 20.58385 L 82.906254 19.932808 L 83.000004 17.984892 L 83.296879 17.438017 L 83.838545 17.010933 L 84.458337 17.1151 L 85.140629 17.0526 L 88.187504 17.33385 L 88.744796 17.563017 L 89.067712 18.151558 L 89.260421 18.95885 L 89.098962 19.901558 L 88.744796 20.354683 L 88.187504 20.70885 L 86.406254 20.875517 Z M 109.338547 26.417184 L 112.229173 26.125517 L 113.463548 25.740101 L 116.343756 24.438017 L 118.619798 22.27135 L 119.036465 21.682809 L 120.307298 19.448433 L 120.536465 18.83385 L 120.630215 18.182808 L 120.822923 17.661975 L 120.953132 16.948433 L 121.11459 14.672391 L 120.953132 12.443224 L 120.692715 11.234891 L 120.432298 10.557808 L 120.276048 9.813016 L 119.687507 8.740099 L 119.45834 8.156766 L 119.036465 7.609891 L 118.651048 7.214057 L 118.229173 6.635932 L 116.838548 5.370307 L 115.182298 4.32864 L 110.927089 3.000515 L 109.406256 2.969265 L 107.135422 3.094265 L 106.484381 3.229682 L 105.838547 3.42239 L 105.250005 3.682807 L 104.020839 4.005724 L 102.364589 5.042182 L 101.916672 5.432807 L 100.869797 6.146349 L 100.000005 7.120307 L 98.895838 8.740099 L 98.604172 9.297391 L 97.989588 11.078641 L 97.723963 12.474474 L 97.598963 16.234891 L 97.95313 18.276558 L 98.437505 19.380725 L 98.635422 20.057808 L 98.963547 20.64635 L 100.48438 22.719267 L 101.39063 23.599475 L 101.812505 24.08385 L 104.020839 25.255726 L 104.64063 25.516142 L 107.395839 26.323434 Z M 108.432297 20.70885 L 107.786464 20.4901 L 107.197922 20.417183 L 106.098964 19.839058 L 105.093755 18.95885 L 104.76563 18.505725 L 104.348964 18.047392 L 103.729172 16.234891 L 103.562505 14.609891 L 103.604172 13.635933 L 103.822922 12.443224 L 104.020839 11.854683 L 104.411464 11.401558 L 104.70313 10.849474 L 105.125005 10.333849 L 105.604172 9.906766 L 106.546881 9.255724 L 107.135422 8.974474 L 107.817714 8.807807 L 109.307297 8.677599 L 110.864589 8.776557 L 112.583339 9.516141 L 113.588548 10.260933 L 114.333339 11.370308 L 114.593756 11.948433 L 114.791673 12.599474 L 115.015631 13.188016 L 115.151048 14.578641 L 114.953131 16.203641 L 114.656256 17.531767 L 114.302089 18.016142 L 114.010423 18.505725 L 113.619798 19.094267 L 112.614589 19.870308 L 112.031256 20.130725 L 111.515631 20.417183 L 110.927089 20.4901 L 110.312506 20.64635 Z M 131.072924 26.292184 L 133.635424 26.354684 L 134.281258 26.292184 L 134.9323 26.125517 L 135.583341 26.031767 L 136.229175 25.771351 L 136.817716 25.708851 L 137.4323 25.411976 L 139.635425 24.08385 L 140.578133 23.109892 L 140.90105 22.656767 L 141.260425 21.943225 L 141.458342 21.359892 L 141.645842 20.813017 L 141.843758 19.188017 L 141.77605 18.151558 L 141.291675 16.266141 L 140.937508 15.750516 L 140.093758 14.776558 L 139.510425 14.255725 L 138.984383 13.995308 L 138.406258 13.635933 L 135.875008 12.859891 L 135.223966 12.766141 L 134.572924 12.734891 L 133.895841 12.599474 L 132.953133 12.599474 L 131.234383 12.245308 L 130.036466 11.667183 L 129.546882 11.203641 L 129.421882 10.229683 L 129.578132 9.359891 L 129.973966 8.938016 L 130.458341 8.578641 L 130.979174 8.292182 L 131.557299 8.156766 L 132.593758 8.125516 L 133.635424 8.250516 L 134.218758 8.417182 L 134.807299 8.807807 L 135.348966 9.255724 L 135.843758 9.906766 L 136.5573 10.333849 L 138.083341 10.198433 L 138.953133 10.260933 L 139.604175 10.260933 L 140.192717 10.333849 L 140.8073 9.875516 L 141.062508 9.328641 L 140.937508 8.708849 L 140.8698 8.094266 L 139.958342 6.406766 L 139.250008 5.432807 L 137.109383 3.943224 L 135.286466 3.323432 L 134.031258 3.063015 L 131.526049 3.000515 L 130.812507 3.198432 L 130.161466 3.229682 L 129.578132 3.323432 L 128.348966 3.714057 L 127.239591 4.365099 L 125.687507 5.432807 L 124.557299 6.958849 L 123.968757 8.740099 L 123.875007 10.333849 L 123.906257 11.339058 L 124.130215 12.630724 L 124.651049 13.77135 L 125.848965 15.260933 L 128.057299 16.464058 L 129.223966 16.854683 L 134.312508 17.438017 L 135.484383 17.984892 L 135.906258 18.375517 L 136.104175 19.188017 L 135.843758 19.995308 L 135.421883 20.4901 L 134.312508 20.969267 L 133.307299 21.031767 L 132.729174 21.135934 L 131.072924 20.969267 L 130.520841 20.6776 L 129.973966 20.323433 L 128.895841 19.156767 L 128.244799 18.89635 L 127.666674 18.95885 L 127.052091 18.8651 L 124.557299 18.9901 L 123.968757 19.250517 L 123.70834 19.932808 L 123.80209 20.58385 L 123.937507 21.229684 L 124.130215 21.818225 L 124.744799 23.016142 L 125.197924 23.432809 L 125.625007 23.922392 L 126.760424 24.635934 L 127.208341 25.120309 L 127.828132 25.411976 L 128.479174 25.609892 L 129.744799 26.063017 Z M 162.182302 26.063017 L 163.411468 25.969267 L 164.03126 26.031767 L 165.036469 26.000517 L 165.947927 25.839059 L 166.041677 25.057809 L 165.81251 24.313017 L 165.328135 23.109892 L 164.447927 21.422392 L 164.00001 20.224475 L 163.348968 19.0526 L 162.114593 16.109891 L 161.786468 15.6151 L 161.473968 15.000516 L 161.276052 14.286975 L 160.979177 13.8026 L 160.791677 13.281766 L 160.104177 12.083849 L 159.880218 11.401558 L 157.734385 6.891141 L 157.541676 6.245307 L 157.18751 5.661974 L 156.989593 5.073432 L 156.369801 3.943224 L 155.822926 3.354682 L 154.755218 3.031765 L 153.718759 3.39114 L 153.130218 3.943224 L 152.838551 4.490099 L 152.609384 5.141141 L 152.317718 5.599474 L 151.026051 8.578641 L 150.666676 9.068224 L 150.505217 9.714058 L 150.145842 10.333849 L 149.947926 10.911974 L 146.645842 17.859892 L 146.447925 18.573433 L 146.125009 19.0526 L 145.895842 19.703642 L 145.317717 20.7401 L 144.822925 22.042184 L 144.468759 22.500517 L 144.3073 23.078642 L 143.661467 24.375517 L 143.46355 25.026559 L 143.630217 25.839059 L 144.27605 26.031767 L 145.536467 25.969267 L 146.187509 26.031767 L 148.010426 25.969267 L 148.750009 25.740101 L 149.369801 25.161975 L 149.947926 24.08385 L 150.567717 23.474475 L 151.244801 23.109892 L 151.864593 23.214059 L 153.229176 23.078642 L 153.812509 23.182809 L 156.989593 23.14635 L 157.572926 23.214059 L 158.286468 23.109892 L 159.00001 23.474475 L 159.619802 23.9901 L 159.911468 24.604684 L 160.104177 25.193225 L 160.75001 25.677601 L 161.505218 26.000517 Z M 154.817718 17.984892 L 154.171884 17.859892 L 153.427093 17.922392 L 152.901051 17.693225 L 152.869801 17.08385 L 154.401051 13.573433 L 154.755218 13.281766 L 155.208343 13.542183 L 156.734385 17.1151 L 156.598968 17.693225 L 156.119801 17.953642 Z M 154.817718 17.984892 " stroke="#ffffff" stroke-width="1.216605" stroke-opacity="1" stroke-miterlimit="4"/></svg>